# xmcd
#
# Track frame offsets:
#	150
#	15119
#	33122
#	49748
#	67750
#	87216
#	102670
#	122856
#	140516
#	159347
#	178661
#	197008
#	212875
#	235320
#	254793
#	273988
#	289476
#	311865
#	328525
#
# Disc length: 4384 seconds
#
# Revision: 0
# Processed by: cddbd v1.5.2PL0 Copyright (c) Steve Scherf et al.
# Submitted via: audiograbber 1.83.01
#
DISCID=17111e13
DTITLE=Various Artist - Carolina Shag Vol 1
DYEAR=1900
DGENRE=
TTITLE0=Spaniels - Sloppy Drunk
TTITLE1=Clovers - Drive It Home
TTITLE2=Roy C - I Shoulda Shot The Man
TTITLE3=Back By Popular Demand - Back By Popular Demand
TTITLE4=Richard Fields - Jazzy Lady
TTITLE5=Dynamic Upsetters - I Want A Man To Shag With Me
TTITLE6=Boz Scaggs - Sick And Tired
TTITLE7=Fantastic Shakers - Shakin The Shack
TTITLE8=Clarence Carter - Dr C C
TTITLE9=Jaggerz - Gonna Move Across The River
TTITLE10=Nappy Brown - Drinkin Wine Spo-Dee-O-Dee
TTITLE11=Al Marshall - Be My Guest
TTITLE12=Who-Dun-It - Marla's Memory Lane
TTITLE13=Juke Jumpers - Let's Get Loose
TTITLE14=Band Of Oz - Shama Lama Ding Dong
TTITLE15=Drifters - W.P.L.J
TTITLE16=Microwave Dave and Nukes - Roadrunner
TTITLE17=Holiday Band - Shotgun Boogie
TTITLE18=Bad - Bad Track
EXTD=
EXTT0=
EXTT1=
EXTT2=
EXTT3=
EXTT4=
EXTT5=
EXTT6=
EXTT7=
EXTT8=
EXTT9=
EXTT10=
EXTT11=
EXTT12=
EXTT13=
EXTT14=
EXTT15=
EXTT16=
EXTT17=
EXTT18=
PLAYORDER=
